%TF.GenerationSoftware,KiCad,Pcbnew,5.1.8*%
%TF.CreationDate,2020-12-04T00:19:28-05:00*%
%TF.ProjectId,spur,73707572-2e6b-4696-9361-645f70636258,v1.0*%
%TF.SameCoordinates,Original*%
%TF.FileFunction,Soldermask,Top*%
%TF.FilePolarity,Negative*%
%FSLAX46Y46*%
G04 Gerber Fmt 4.6, Leading zero omitted, Abs format (unit mm)*
G04 Created by KiCad (PCBNEW 5.1.8) date 2020-12-04 00:19:28*
%MOMM*%
%LPD*%
G01*
G04 APERTURE LIST*
%ADD10C,1.000000*%
G04 APERTURE END LIST*
%TO.C,J1*%
G36*
G01*
X135314500Y-85420000D02*
X135314500Y-75260000D01*
G75*
G02*
X135364500Y-75210000I50000J0D01*
G01*
X137269500Y-75210000D01*
G75*
G02*
X137319500Y-75260000I0J-50000D01*
G01*
X137319500Y-85420000D01*
G75*
G02*
X137269500Y-85470000I-50000J0D01*
G01*
X135364500Y-85470000D01*
G75*
G02*
X135314500Y-85420000I0J50000D01*
G01*
G37*
G36*
G01*
X137791000Y-85420000D02*
X137791000Y-76530000D01*
G75*
G02*
X137841000Y-76480000I50000J0D01*
G01*
X139746000Y-76480000D01*
G75*
G02*
X139796000Y-76530000I0J-50000D01*
G01*
X139796000Y-85420000D01*
G75*
G02*
X139746000Y-85470000I-50000J0D01*
G01*
X137841000Y-85470000D01*
G75*
G02*
X137791000Y-85420000I0J50000D01*
G01*
G37*
G36*
G01*
X140204000Y-85420000D02*
X140204000Y-76530000D01*
G75*
G02*
X140254000Y-76480000I50000J0D01*
G01*
X142159000Y-76480000D01*
G75*
G02*
X142209000Y-76530000I0J-50000D01*
G01*
X142209000Y-85420000D01*
G75*
G02*
X142159000Y-85470000I-50000J0D01*
G01*
X140254000Y-85470000D01*
G75*
G02*
X140204000Y-85420000I0J50000D01*
G01*
G37*
G36*
G01*
X142680500Y-85420000D02*
X142680500Y-75260000D01*
G75*
G02*
X142730500Y-75210000I50000J0D01*
G01*
X144635500Y-75210000D01*
G75*
G02*
X144685500Y-75260000I0J-50000D01*
G01*
X144685500Y-85420000D01*
G75*
G02*
X144635500Y-85470000I-50000J0D01*
G01*
X142730500Y-85470000D01*
G75*
G02*
X142680500Y-85420000I0J50000D01*
G01*
G37*
%TD*%
%TO.C,C3*%
G36*
G01*
X137802500Y-86670000D02*
X138197500Y-86670000D01*
G75*
G02*
X138370000Y-86842500I0J-172500D01*
G01*
X138370000Y-87187500D01*
G75*
G02*
X138197500Y-87360000I-172500J0D01*
G01*
X137802500Y-87360000D01*
G75*
G02*
X137630000Y-87187500I0J172500D01*
G01*
X137630000Y-86842500D01*
G75*
G02*
X137802500Y-86670000I172500J0D01*
G01*
G37*
G36*
G01*
X137802500Y-87640000D02*
X138197500Y-87640000D01*
G75*
G02*
X138370000Y-87812500I0J-172500D01*
G01*
X138370000Y-88157500D01*
G75*
G02*
X138197500Y-88330000I-172500J0D01*
G01*
X137802500Y-88330000D01*
G75*
G02*
X137630000Y-88157500I0J172500D01*
G01*
X137630000Y-87812500D01*
G75*
G02*
X137802500Y-87640000I172500J0D01*
G01*
G37*
%TD*%
%TO.C,D2*%
G36*
G01*
X140615000Y-85945000D02*
X140885000Y-85945000D01*
G75*
G02*
X140935000Y-85995000I0J-50000D01*
G01*
X140935000Y-86325000D01*
G75*
G02*
X140885000Y-86375000I-50000J0D01*
G01*
X140615000Y-86375000D01*
G75*
G02*
X140565000Y-86325000I0J50000D01*
G01*
X140565000Y-85995000D01*
G75*
G02*
X140615000Y-85945000I50000J0D01*
G01*
G37*
G36*
G01*
X140115000Y-85945000D02*
X140385000Y-85945000D01*
G75*
G02*
X140435000Y-85995000I0J-50000D01*
G01*
X140435000Y-86325000D01*
G75*
G02*
X140385000Y-86375000I-50000J0D01*
G01*
X140115000Y-86375000D01*
G75*
G02*
X140065000Y-86325000I0J50000D01*
G01*
X140065000Y-85995000D01*
G75*
G02*
X140115000Y-85945000I50000J0D01*
G01*
G37*
G36*
G01*
X139615000Y-85945000D02*
X139885000Y-85945000D01*
G75*
G02*
X139935000Y-85995000I0J-50000D01*
G01*
X139935000Y-86325000D01*
G75*
G02*
X139885000Y-86375000I-50000J0D01*
G01*
X139615000Y-86375000D01*
G75*
G02*
X139565000Y-86325000I0J50000D01*
G01*
X139565000Y-85995000D01*
G75*
G02*
X139615000Y-85945000I50000J0D01*
G01*
G37*
G36*
G01*
X139615000Y-86625000D02*
X139885000Y-86625000D01*
G75*
G02*
X139935000Y-86675000I0J-50000D01*
G01*
X139935000Y-87005000D01*
G75*
G02*
X139885000Y-87055000I-50000J0D01*
G01*
X139615000Y-87055000D01*
G75*
G02*
X139565000Y-87005000I0J50000D01*
G01*
X139565000Y-86675000D01*
G75*
G02*
X139615000Y-86625000I50000J0D01*
G01*
G37*
G36*
G01*
X140115000Y-86625000D02*
X140385000Y-86625000D01*
G75*
G02*
X140435000Y-86675000I0J-50000D01*
G01*
X140435000Y-87005000D01*
G75*
G02*
X140385000Y-87055000I-50000J0D01*
G01*
X140115000Y-87055000D01*
G75*
G02*
X140065000Y-87005000I0J50000D01*
G01*
X140065000Y-86675000D01*
G75*
G02*
X140115000Y-86625000I50000J0D01*
G01*
G37*
G36*
G01*
X140615000Y-86625000D02*
X140885000Y-86625000D01*
G75*
G02*
X140935000Y-86675000I0J-50000D01*
G01*
X140935000Y-87005000D01*
G75*
G02*
X140885000Y-87055000I-50000J0D01*
G01*
X140615000Y-87055000D01*
G75*
G02*
X140565000Y-87005000I0J50000D01*
G01*
X140565000Y-86675000D01*
G75*
G02*
X140615000Y-86625000I50000J0D01*
G01*
G37*
%TD*%
%TO.C,R3*%
G36*
G01*
X144697500Y-86660000D02*
X144302500Y-86660000D01*
G75*
G02*
X144130000Y-86487500I0J172500D01*
G01*
X144130000Y-86142500D01*
G75*
G02*
X144302500Y-85970000I172500J0D01*
G01*
X144697500Y-85970000D01*
G75*
G02*
X144870000Y-86142500I0J-172500D01*
G01*
X144870000Y-86487500D01*
G75*
G02*
X144697500Y-86660000I-172500J0D01*
G01*
G37*
G36*
G01*
X144697500Y-87630000D02*
X144302500Y-87630000D01*
G75*
G02*
X144130000Y-87457500I0J172500D01*
G01*
X144130000Y-87112500D01*
G75*
G02*
X144302500Y-86940000I172500J0D01*
G01*
X144697500Y-86940000D01*
G75*
G02*
X144870000Y-87112500I0J-172500D01*
G01*
X144870000Y-87457500D01*
G75*
G02*
X144697500Y-87630000I-172500J0D01*
G01*
G37*
%TD*%
%TO.C,U1*%
G36*
G01*
X138675000Y-88050000D02*
X138675000Y-87650000D01*
G75*
G02*
X138725000Y-87600000I50000J0D01*
G01*
X139375000Y-87600000D01*
G75*
G02*
X139425000Y-87650000I0J-50000D01*
G01*
X139425000Y-88050000D01*
G75*
G02*
X139375000Y-88100000I-50000J0D01*
G01*
X138725000Y-88100000D01*
G75*
G02*
X138675000Y-88050000I0J50000D01*
G01*
G37*
G36*
G01*
X138675000Y-89350000D02*
X138675000Y-88950000D01*
G75*
G02*
X138725000Y-88900000I50000J0D01*
G01*
X139375000Y-88900000D01*
G75*
G02*
X139425000Y-88950000I0J-50000D01*
G01*
X139425000Y-89350000D01*
G75*
G02*
X139375000Y-89400000I-50000J0D01*
G01*
X138725000Y-89400000D01*
G75*
G02*
X138675000Y-89350000I0J50000D01*
G01*
G37*
G36*
G01*
X138675000Y-88700000D02*
X138675000Y-88300000D01*
G75*
G02*
X138725000Y-88250000I50000J0D01*
G01*
X139375000Y-88250000D01*
G75*
G02*
X139425000Y-88300000I0J-50000D01*
G01*
X139425000Y-88700000D01*
G75*
G02*
X139375000Y-88750000I-50000J0D01*
G01*
X138725000Y-88750000D01*
G75*
G02*
X138675000Y-88700000I0J50000D01*
G01*
G37*
G36*
G01*
X140575000Y-89350000D02*
X140575000Y-88950000D01*
G75*
G02*
X140625000Y-88900000I50000J0D01*
G01*
X141275000Y-88900000D01*
G75*
G02*
X141325000Y-88950000I0J-50000D01*
G01*
X141325000Y-89350000D01*
G75*
G02*
X141275000Y-89400000I-50000J0D01*
G01*
X140625000Y-89400000D01*
G75*
G02*
X140575000Y-89350000I0J50000D01*
G01*
G37*
G36*
G01*
X140575000Y-88050000D02*
X140575000Y-87650000D01*
G75*
G02*
X140625000Y-87600000I50000J0D01*
G01*
X141275000Y-87600000D01*
G75*
G02*
X141325000Y-87650000I0J-50000D01*
G01*
X141325000Y-88050000D01*
G75*
G02*
X141275000Y-88100000I-50000J0D01*
G01*
X140625000Y-88100000D01*
G75*
G02*
X140575000Y-88050000I0J50000D01*
G01*
G37*
%TD*%
%TO.C,SW1*%
G36*
G01*
X143300000Y-92800000D02*
X143300000Y-92000000D01*
G75*
G02*
X143350000Y-91950000I50000J0D01*
G01*
X144150000Y-91950000D01*
G75*
G02*
X144200000Y-92000000I0J-50000D01*
G01*
X144200000Y-92800000D01*
G75*
G02*
X144150000Y-92850000I-50000J0D01*
G01*
X143350000Y-92850000D01*
G75*
G02*
X143300000Y-92800000I0J50000D01*
G01*
G37*
G36*
G01*
X135800000Y-92800000D02*
X135800000Y-92000000D01*
G75*
G02*
X135850000Y-91950000I50000J0D01*
G01*
X136650000Y-91950000D01*
G75*
G02*
X136700000Y-92000000I0J-50000D01*
G01*
X136700000Y-92800000D01*
G75*
G02*
X136650000Y-92850000I-50000J0D01*
G01*
X135850000Y-92850000D01*
G75*
G02*
X135800000Y-92800000I0J50000D01*
G01*
G37*
G36*
G01*
X141800000Y-90900000D02*
X141800000Y-90100000D01*
G75*
G02*
X141850000Y-90050000I50000J0D01*
G01*
X142650000Y-90050000D01*
G75*
G02*
X142700000Y-90100000I0J-50000D01*
G01*
X142700000Y-90900000D01*
G75*
G02*
X142650000Y-90950000I-50000J0D01*
G01*
X141850000Y-90950000D01*
G75*
G02*
X141800000Y-90900000I0J50000D01*
G01*
G37*
G36*
G01*
X139550000Y-90900000D02*
X139550000Y-90100000D01*
G75*
G02*
X139600000Y-90050000I50000J0D01*
G01*
X140400000Y-90050000D01*
G75*
G02*
X140450000Y-90100000I0J-50000D01*
G01*
X140450000Y-90900000D01*
G75*
G02*
X140400000Y-90950000I-50000J0D01*
G01*
X139600000Y-90950000D01*
G75*
G02*
X139550000Y-90900000I0J50000D01*
G01*
G37*
D10*
X142000000Y-92580000D03*
X138000000Y-92580000D03*
G36*
G01*
X137300000Y-90900000D02*
X137300000Y-90100000D01*
G75*
G02*
X137350000Y-90050000I50000J0D01*
G01*
X138150000Y-90050000D01*
G75*
G02*
X138200000Y-90100000I0J-50000D01*
G01*
X138200000Y-90900000D01*
G75*
G02*
X138150000Y-90950000I-50000J0D01*
G01*
X137350000Y-90950000D01*
G75*
G02*
X137300000Y-90900000I0J50000D01*
G01*
G37*
%TD*%
%TO.C,D1*%
G36*
G01*
X135570000Y-86547500D02*
X135570000Y-86152500D01*
G75*
G02*
X135742500Y-85980000I172500J0D01*
G01*
X136087500Y-85980000D01*
G75*
G02*
X136260000Y-86152500I0J-172500D01*
G01*
X136260000Y-86547500D01*
G75*
G02*
X136087500Y-86720000I-172500J0D01*
G01*
X135742500Y-86720000D01*
G75*
G02*
X135570000Y-86547500I0J172500D01*
G01*
G37*
G36*
G01*
X136540000Y-86547500D02*
X136540000Y-86152500D01*
G75*
G02*
X136712500Y-85980000I172500J0D01*
G01*
X137057500Y-85980000D01*
G75*
G02*
X137230000Y-86152500I0J-172500D01*
G01*
X137230000Y-86547500D01*
G75*
G02*
X137057500Y-86720000I-172500J0D01*
G01*
X136712500Y-86720000D01*
G75*
G02*
X136540000Y-86547500I0J172500D01*
G01*
G37*
%TD*%
%TO.C,R1*%
G36*
G01*
X141670000Y-88197500D02*
X141670000Y-87802500D01*
G75*
G02*
X141842500Y-87630000I172500J0D01*
G01*
X142187500Y-87630000D01*
G75*
G02*
X142360000Y-87802500I0J-172500D01*
G01*
X142360000Y-88197500D01*
G75*
G02*
X142187500Y-88370000I-172500J0D01*
G01*
X141842500Y-88370000D01*
G75*
G02*
X141670000Y-88197500I0J172500D01*
G01*
G37*
G36*
G01*
X142640000Y-88197500D02*
X142640000Y-87802500D01*
G75*
G02*
X142812500Y-87630000I172500J0D01*
G01*
X143157500Y-87630000D01*
G75*
G02*
X143330000Y-87802500I0J-172500D01*
G01*
X143330000Y-88197500D01*
G75*
G02*
X143157500Y-88370000I-172500J0D01*
G01*
X142812500Y-88370000D01*
G75*
G02*
X142640000Y-88197500I0J172500D01*
G01*
G37*
%TD*%
%TO.C,R2*%
G36*
G01*
X142640000Y-89297500D02*
X142640000Y-88902500D01*
G75*
G02*
X142812500Y-88730000I172500J0D01*
G01*
X143157500Y-88730000D01*
G75*
G02*
X143330000Y-88902500I0J-172500D01*
G01*
X143330000Y-89297500D01*
G75*
G02*
X143157500Y-89470000I-172500J0D01*
G01*
X142812500Y-89470000D01*
G75*
G02*
X142640000Y-89297500I0J172500D01*
G01*
G37*
G36*
G01*
X141670000Y-89297500D02*
X141670000Y-88902500D01*
G75*
G02*
X141842500Y-88730000I172500J0D01*
G01*
X142187500Y-88730000D01*
G75*
G02*
X142360000Y-88902500I0J-172500D01*
G01*
X142360000Y-89297500D01*
G75*
G02*
X142187500Y-89470000I-172500J0D01*
G01*
X141842500Y-89470000D01*
G75*
G02*
X141670000Y-89297500I0J172500D01*
G01*
G37*
%TD*%
%TO.C,C1*%
G36*
G01*
X135570000Y-87647500D02*
X135570000Y-87252500D01*
G75*
G02*
X135742500Y-87080000I172500J0D01*
G01*
X136087500Y-87080000D01*
G75*
G02*
X136260000Y-87252500I0J-172500D01*
G01*
X136260000Y-87647500D01*
G75*
G02*
X136087500Y-87820000I-172500J0D01*
G01*
X135742500Y-87820000D01*
G75*
G02*
X135570000Y-87647500I0J172500D01*
G01*
G37*
G36*
G01*
X136540000Y-87647500D02*
X136540000Y-87252500D01*
G75*
G02*
X136712500Y-87080000I172500J0D01*
G01*
X137057500Y-87080000D01*
G75*
G02*
X137230000Y-87252500I0J-172500D01*
G01*
X137230000Y-87647500D01*
G75*
G02*
X137057500Y-87820000I-172500J0D01*
G01*
X136712500Y-87820000D01*
G75*
G02*
X136540000Y-87647500I0J172500D01*
G01*
G37*
%TD*%
%TO.C,C2*%
G36*
G01*
X142640000Y-87097500D02*
X142640000Y-86702500D01*
G75*
G02*
X142812500Y-86530000I172500J0D01*
G01*
X143157500Y-86530000D01*
G75*
G02*
X143330000Y-86702500I0J-172500D01*
G01*
X143330000Y-87097500D01*
G75*
G02*
X143157500Y-87270000I-172500J0D01*
G01*
X142812500Y-87270000D01*
G75*
G02*
X142640000Y-87097500I0J172500D01*
G01*
G37*
G36*
G01*
X141670000Y-87097500D02*
X141670000Y-86702500D01*
G75*
G02*
X141842500Y-86530000I172500J0D01*
G01*
X142187500Y-86530000D01*
G75*
G02*
X142360000Y-86702500I0J-172500D01*
G01*
X142360000Y-87097500D01*
G75*
G02*
X142187500Y-87270000I-172500J0D01*
G01*
X141842500Y-87270000D01*
G75*
G02*
X141670000Y-87097500I0J172500D01*
G01*
G37*
%TD*%
M02*
