M48
; DRILL file {KiCad 5.1.8} date Fri Dec  4 00:19:51 2020
; FORMAT={-:-/ absolute / metric / decimal}
; #@! TF.CreationDate,2020-12-04T00:19:51-05:00
; #@! TF.GenerationSoftware,Kicad,Pcbnew,5.1.8
; #@! TF.FileFunction,Plated,1,2,PTH
FMAT,2
METRIC
T1C0.300
%
G90
G05
T1
X134.864Y-79.0
X135.88Y-91.31
X136.152Y-89.773
X136.88Y-90.506
X137.034Y-88.891
X137.41Y-91.4
X137.899Y-89.479
X137.9Y-75.3
X138.2Y-86.65
X138.255Y-88.22
X139.5Y-92.51
X140.0Y-75.5
X140.5Y-88.3
X141.04Y-75.475
X141.65Y-86.05
X142.25Y-74.89
X142.75Y-91.4
X142.99Y-75.3
X143.0Y-89.6
X143.8Y-75.85
X144.1Y-85.2
X144.5Y-87.6
X144.57Y-81.55
X144.57Y-82.77
X145.2Y-75.7
T0
M30
