%TF.GenerationSoftware,KiCad,Pcbnew,5.1.8*%
%TF.CreationDate,2020-12-04T00:19:28-05:00*%
%TF.ProjectId,spur,73707572-2e6b-4696-9361-645f70636258,v1.0*%
%TF.SameCoordinates,Original*%
%TF.FileFunction,Legend,Bot*%
%TF.FilePolarity,Positive*%
%FSLAX46Y46*%
G04 Gerber Fmt 4.6, Leading zero omitted, Abs format (unit mm)*
G04 Created by KiCad (PCBNEW 5.1.8) date 2020-12-04 00:19:28*
%MOMM*%
%LPD*%
G01*
G04 APERTURE LIST*
%ADD10C,0.150000*%
%ADD11C,0.200000*%
%ADD12C,0.120000*%
G04 APERTURE END LIST*
D10*
X135438095Y-87614285D02*
X134790476Y-87614285D01*
X134714285Y-87576190D01*
X134676190Y-87538095D01*
X134638095Y-87461904D01*
X134638095Y-87309523D01*
X134676190Y-87233333D01*
X134714285Y-87195238D01*
X134790476Y-87157142D01*
X135438095Y-87157142D01*
X135057142Y-86776190D02*
X135057142Y-86509523D01*
X134638095Y-86395238D02*
X134638095Y-86776190D01*
X135438095Y-86776190D01*
X135438095Y-86395238D01*
X135057142Y-85785714D02*
X135057142Y-86052380D01*
X134638095Y-86052380D02*
X135438095Y-86052380D01*
X135438095Y-85671428D01*
X134638095Y-85366666D02*
X135438095Y-85366666D01*
X135057142Y-84109523D02*
X135019047Y-83995238D01*
X134980952Y-83957142D01*
X134904761Y-83919047D01*
X134790476Y-83919047D01*
X134714285Y-83957142D01*
X134676190Y-83995238D01*
X134638095Y-84071428D01*
X134638095Y-84376190D01*
X135438095Y-84376190D01*
X135438095Y-84109523D01*
X135400000Y-84033333D01*
X135361904Y-83995238D01*
X135285714Y-83957142D01*
X135209523Y-83957142D01*
X135133333Y-83995238D01*
X135095238Y-84033333D01*
X135057142Y-84109523D01*
X135057142Y-84376190D01*
X135438095Y-83423809D02*
X135438095Y-83271428D01*
X135400000Y-83195238D01*
X135323809Y-83119047D01*
X135171428Y-83080952D01*
X134904761Y-83080952D01*
X134752380Y-83119047D01*
X134676190Y-83195238D01*
X134638095Y-83271428D01*
X134638095Y-83423809D01*
X134676190Y-83500000D01*
X134752380Y-83576190D01*
X134904761Y-83614285D01*
X135171428Y-83614285D01*
X135323809Y-83576190D01*
X135400000Y-83500000D01*
X135438095Y-83423809D01*
X135438095Y-82585714D02*
X135438095Y-82433333D01*
X135400000Y-82357142D01*
X135323809Y-82280952D01*
X135171428Y-82242857D01*
X134904761Y-82242857D01*
X134752380Y-82280952D01*
X134676190Y-82357142D01*
X134638095Y-82433333D01*
X134638095Y-82585714D01*
X134676190Y-82661904D01*
X134752380Y-82738095D01*
X134904761Y-82776190D01*
X135171428Y-82776190D01*
X135323809Y-82738095D01*
X135400000Y-82661904D01*
X135438095Y-82585714D01*
X135438095Y-82014285D02*
X135438095Y-81557142D01*
X134638095Y-81785714D02*
X135438095Y-81785714D01*
X134676190Y-80719047D02*
X134638095Y-80604761D01*
X134638095Y-80414285D01*
X134676190Y-80338095D01*
X134714285Y-80300000D01*
X134790476Y-80261904D01*
X134866666Y-80261904D01*
X134942857Y-80300000D01*
X134980952Y-80338095D01*
X135019047Y-80414285D01*
X135057142Y-80566666D01*
X135095238Y-80642857D01*
X135133333Y-80680952D01*
X135209523Y-80719047D01*
X135285714Y-80719047D01*
X135361904Y-80680952D01*
X135400000Y-80642857D01*
X135438095Y-80566666D01*
X135438095Y-80376190D01*
X135400000Y-80261904D01*
X135438095Y-79995238D02*
X134638095Y-79804761D01*
X135209523Y-79652380D01*
X134638095Y-79500000D01*
X135438095Y-79309523D01*
X145361904Y-76226190D02*
X144561904Y-76226190D01*
X145285714Y-76607142D02*
X145323809Y-76645238D01*
X145361904Y-76607142D01*
X145323809Y-76569047D01*
X145285714Y-76607142D01*
X145361904Y-76607142D01*
X144600000Y-77407142D02*
X144561904Y-77330952D01*
X144561904Y-77216666D01*
X144600000Y-77102380D01*
X144676190Y-77026190D01*
X144752380Y-76988095D01*
X144904761Y-76950000D01*
X145019047Y-76950000D01*
X145171428Y-76988095D01*
X145247619Y-77026190D01*
X145323809Y-77102380D01*
X145361904Y-77216666D01*
X145361904Y-77292857D01*
X145323809Y-77407142D01*
X145285714Y-77445238D01*
X145019047Y-77445238D01*
X145019047Y-77292857D01*
X145361904Y-78169047D02*
X145361904Y-77788095D01*
X144561904Y-77788095D01*
X144942857Y-78435714D02*
X144942857Y-78702380D01*
X145361904Y-78816666D02*
X145361904Y-78435714D01*
X144561904Y-78435714D01*
X144561904Y-78816666D01*
X145361904Y-79159523D02*
X144561904Y-79159523D01*
X145361904Y-79616666D01*
X144561904Y-79616666D01*
X144638095Y-80569047D02*
X144600000Y-80607142D01*
X144561904Y-80683333D01*
X144561904Y-80873809D01*
X144600000Y-80950000D01*
X144638095Y-80988095D01*
X144714285Y-81026190D01*
X144790476Y-81026190D01*
X144904761Y-80988095D01*
X145361904Y-80530952D01*
X145361904Y-81026190D01*
X144561904Y-81521428D02*
X144561904Y-81597619D01*
X144600000Y-81673809D01*
X144638095Y-81711904D01*
X144714285Y-81750000D01*
X144866666Y-81788095D01*
X145057142Y-81788095D01*
X145209523Y-81750000D01*
X145285714Y-81711904D01*
X145323809Y-81673809D01*
X145361904Y-81597619D01*
X145361904Y-81521428D01*
X145323809Y-81445238D01*
X145285714Y-81407142D01*
X145209523Y-81369047D01*
X145057142Y-81330952D01*
X144866666Y-81330952D01*
X144714285Y-81369047D01*
X144638095Y-81407142D01*
X144600000Y-81445238D01*
X144561904Y-81521428D01*
X144638095Y-82092857D02*
X144600000Y-82130952D01*
X144561904Y-82207142D01*
X144561904Y-82397619D01*
X144600000Y-82473809D01*
X144638095Y-82511904D01*
X144714285Y-82550000D01*
X144790476Y-82550000D01*
X144904761Y-82511904D01*
X145361904Y-82054761D01*
X145361904Y-82550000D01*
X144561904Y-83045238D02*
X144561904Y-83121428D01*
X144600000Y-83197619D01*
X144638095Y-83235714D01*
X144714285Y-83273809D01*
X144866666Y-83311904D01*
X145057142Y-83311904D01*
X145209523Y-83273809D01*
X145285714Y-83235714D01*
X145323809Y-83197619D01*
X145361904Y-83121428D01*
X145361904Y-83045238D01*
X145323809Y-82969047D01*
X145285714Y-82930952D01*
X145209523Y-82892857D01*
X145057142Y-82854761D01*
X144866666Y-82854761D01*
X144714285Y-82892857D01*
X144638095Y-82930952D01*
X144600000Y-82969047D01*
X144561904Y-83045238D01*
D11*
X144138095Y-90195238D02*
X143980952Y-90247619D01*
X143719047Y-90247619D01*
X143614285Y-90195238D01*
X143561904Y-90142857D01*
X143509523Y-90038095D01*
X143509523Y-89933333D01*
X143561904Y-89828571D01*
X143614285Y-89776190D01*
X143719047Y-89723809D01*
X143928571Y-89671428D01*
X144033333Y-89619047D01*
X144085714Y-89566666D01*
X144138095Y-89461904D01*
X144138095Y-89357142D01*
X144085714Y-89252380D01*
X144033333Y-89200000D01*
X143928571Y-89147619D01*
X143666666Y-89147619D01*
X143509523Y-89200000D01*
X143038095Y-90247619D02*
X143038095Y-89147619D01*
X142619047Y-89147619D01*
X142514285Y-89200000D01*
X142461904Y-89252380D01*
X142409523Y-89357142D01*
X142409523Y-89514285D01*
X142461904Y-89619047D01*
X142514285Y-89671428D01*
X142619047Y-89723809D01*
X143038095Y-89723809D01*
X141938095Y-89147619D02*
X141938095Y-90038095D01*
X141885714Y-90142857D01*
X141833333Y-90195238D01*
X141728571Y-90247619D01*
X141519047Y-90247619D01*
X141414285Y-90195238D01*
X141361904Y-90142857D01*
X141309523Y-90038095D01*
X141309523Y-89147619D01*
X140157142Y-90247619D02*
X140523809Y-89723809D01*
X140785714Y-90247619D02*
X140785714Y-89147619D01*
X140366666Y-89147619D01*
X140261904Y-89200000D01*
X140209523Y-89252380D01*
X140157142Y-89357142D01*
X140157142Y-89514285D01*
X140209523Y-89619047D01*
X140261904Y-89671428D01*
X140366666Y-89723809D01*
X140785714Y-89723809D01*
X138952380Y-89514285D02*
X138690476Y-90247619D01*
X138428571Y-89514285D01*
X137433333Y-90247619D02*
X138061904Y-90247619D01*
X137747619Y-90247619D02*
X137747619Y-89147619D01*
X137852380Y-89304761D01*
X137957142Y-89409523D01*
X138061904Y-89461904D01*
X136961904Y-90142857D02*
X136909523Y-90195238D01*
X136961904Y-90247619D01*
X137014285Y-90195238D01*
X136961904Y-90142857D01*
X136961904Y-90247619D01*
X136228571Y-89147619D02*
X136123809Y-89147619D01*
X136019047Y-89200000D01*
X135966666Y-89252380D01*
X135914285Y-89357142D01*
X135861904Y-89566666D01*
X135861904Y-89828571D01*
X135914285Y-90038095D01*
X135966666Y-90142857D01*
X136019047Y-90195238D01*
X136123809Y-90247619D01*
X136228571Y-90247619D01*
X136333333Y-90195238D01*
X136385714Y-90142857D01*
X136438095Y-90038095D01*
X136490476Y-89828571D01*
X136490476Y-89566666D01*
X136438095Y-89357142D01*
X136385714Y-89252380D01*
X136333333Y-89200000D01*
X136228571Y-89147619D01*
D12*
%TO.C,U2*%
X138010000Y-84900000D02*
X138010000Y-87900000D01*
X135790000Y-86400000D02*
X135790000Y-87900000D01*
%TO.C,U3*%
X143610000Y-82985000D02*
X143610000Y-83460000D01*
X136390000Y-76240000D02*
X136865000Y-76240000D01*
X136390000Y-76715000D02*
X136390000Y-76240000D01*
X136390000Y-83460000D02*
X136865000Y-83460000D01*
X136390000Y-82985000D02*
X136390000Y-83460000D01*
X143610000Y-76240000D02*
X143135000Y-76240000D01*
X143610000Y-76715000D02*
X143610000Y-76240000D01*
%TO.C,Y1*%
X143350000Y-85250000D02*
X143350000Y-87950000D01*
X141050000Y-85250000D02*
X143350000Y-85250000D01*
%TD*%
M02*
