%TF.GenerationSoftware,KiCad,Pcbnew,5.1.8*%
%TF.CreationDate,2020-12-04T00:19:28-05:00*%
%TF.ProjectId,spur,73707572-2e6b-4696-9361-645f70636258,v1.0*%
%TF.SameCoordinates,Original*%
%TF.FileFunction,Paste,Top*%
%TF.FilePolarity,Positive*%
%FSLAX46Y46*%
G04 Gerber Fmt 4.6, Leading zero omitted, Abs format (unit mm)*
G04 Created by KiCad (PCBNEW 5.1.8) date 2020-12-04 00:19:28*
%MOMM*%
%LPD*%
G01*
G04 APERTURE LIST*
%ADD10R,0.270000X0.330000*%
%ADD11R,0.650000X0.400000*%
%ADD12R,0.800000X0.800000*%
G04 APERTURE END LIST*
%TO.C,C3*%
G36*
G01*
X137827500Y-86720000D02*
X138172500Y-86720000D01*
G75*
G02*
X138320000Y-86867500I0J-147500D01*
G01*
X138320000Y-87162500D01*
G75*
G02*
X138172500Y-87310000I-147500J0D01*
G01*
X137827500Y-87310000D01*
G75*
G02*
X137680000Y-87162500I0J147500D01*
G01*
X137680000Y-86867500D01*
G75*
G02*
X137827500Y-86720000I147500J0D01*
G01*
G37*
G36*
G01*
X137827500Y-87690000D02*
X138172500Y-87690000D01*
G75*
G02*
X138320000Y-87837500I0J-147500D01*
G01*
X138320000Y-88132500D01*
G75*
G02*
X138172500Y-88280000I-147500J0D01*
G01*
X137827500Y-88280000D01*
G75*
G02*
X137680000Y-88132500I0J147500D01*
G01*
X137680000Y-87837500D01*
G75*
G02*
X137827500Y-87690000I147500J0D01*
G01*
G37*
%TD*%
D10*
%TO.C,D2*%
X140750000Y-86160000D03*
X140250000Y-86160000D03*
X139750000Y-86160000D03*
X139750000Y-86840000D03*
X140250000Y-86840000D03*
X140750000Y-86840000D03*
%TD*%
%TO.C,R3*%
G36*
G01*
X144672500Y-86610000D02*
X144327500Y-86610000D01*
G75*
G02*
X144180000Y-86462500I0J147500D01*
G01*
X144180000Y-86167500D01*
G75*
G02*
X144327500Y-86020000I147500J0D01*
G01*
X144672500Y-86020000D01*
G75*
G02*
X144820000Y-86167500I0J-147500D01*
G01*
X144820000Y-86462500D01*
G75*
G02*
X144672500Y-86610000I-147500J0D01*
G01*
G37*
G36*
G01*
X144672500Y-87580000D02*
X144327500Y-87580000D01*
G75*
G02*
X144180000Y-87432500I0J147500D01*
G01*
X144180000Y-87137500D01*
G75*
G02*
X144327500Y-86990000I147500J0D01*
G01*
X144672500Y-86990000D01*
G75*
G02*
X144820000Y-87137500I0J-147500D01*
G01*
X144820000Y-87432500D01*
G75*
G02*
X144672500Y-87580000I-147500J0D01*
G01*
G37*
%TD*%
D11*
%TO.C,U1*%
X139050000Y-87850000D03*
X139050000Y-89150000D03*
X139050000Y-88500000D03*
X140950000Y-89150000D03*
X140950000Y-87850000D03*
%TD*%
D12*
%TO.C,SW1*%
X143750000Y-92400000D03*
X136250000Y-92400000D03*
X142250000Y-90500000D03*
X140000000Y-90500000D03*
X137750000Y-90500000D03*
%TD*%
%TO.C,D1*%
G36*
G01*
X135620000Y-86522500D02*
X135620000Y-86177500D01*
G75*
G02*
X135767500Y-86030000I147500J0D01*
G01*
X136062500Y-86030000D01*
G75*
G02*
X136210000Y-86177500I0J-147500D01*
G01*
X136210000Y-86522500D01*
G75*
G02*
X136062500Y-86670000I-147500J0D01*
G01*
X135767500Y-86670000D01*
G75*
G02*
X135620000Y-86522500I0J147500D01*
G01*
G37*
G36*
G01*
X136590000Y-86522500D02*
X136590000Y-86177500D01*
G75*
G02*
X136737500Y-86030000I147500J0D01*
G01*
X137032500Y-86030000D01*
G75*
G02*
X137180000Y-86177500I0J-147500D01*
G01*
X137180000Y-86522500D01*
G75*
G02*
X137032500Y-86670000I-147500J0D01*
G01*
X136737500Y-86670000D01*
G75*
G02*
X136590000Y-86522500I0J147500D01*
G01*
G37*
%TD*%
%TO.C,R1*%
G36*
G01*
X141720000Y-88172500D02*
X141720000Y-87827500D01*
G75*
G02*
X141867500Y-87680000I147500J0D01*
G01*
X142162500Y-87680000D01*
G75*
G02*
X142310000Y-87827500I0J-147500D01*
G01*
X142310000Y-88172500D01*
G75*
G02*
X142162500Y-88320000I-147500J0D01*
G01*
X141867500Y-88320000D01*
G75*
G02*
X141720000Y-88172500I0J147500D01*
G01*
G37*
G36*
G01*
X142690000Y-88172500D02*
X142690000Y-87827500D01*
G75*
G02*
X142837500Y-87680000I147500J0D01*
G01*
X143132500Y-87680000D01*
G75*
G02*
X143280000Y-87827500I0J-147500D01*
G01*
X143280000Y-88172500D01*
G75*
G02*
X143132500Y-88320000I-147500J0D01*
G01*
X142837500Y-88320000D01*
G75*
G02*
X142690000Y-88172500I0J147500D01*
G01*
G37*
%TD*%
%TO.C,R2*%
G36*
G01*
X142690000Y-89272500D02*
X142690000Y-88927500D01*
G75*
G02*
X142837500Y-88780000I147500J0D01*
G01*
X143132500Y-88780000D01*
G75*
G02*
X143280000Y-88927500I0J-147500D01*
G01*
X143280000Y-89272500D01*
G75*
G02*
X143132500Y-89420000I-147500J0D01*
G01*
X142837500Y-89420000D01*
G75*
G02*
X142690000Y-89272500I0J147500D01*
G01*
G37*
G36*
G01*
X141720000Y-89272500D02*
X141720000Y-88927500D01*
G75*
G02*
X141867500Y-88780000I147500J0D01*
G01*
X142162500Y-88780000D01*
G75*
G02*
X142310000Y-88927500I0J-147500D01*
G01*
X142310000Y-89272500D01*
G75*
G02*
X142162500Y-89420000I-147500J0D01*
G01*
X141867500Y-89420000D01*
G75*
G02*
X141720000Y-89272500I0J147500D01*
G01*
G37*
%TD*%
%TO.C,C1*%
G36*
G01*
X135620000Y-87622500D02*
X135620000Y-87277500D01*
G75*
G02*
X135767500Y-87130000I147500J0D01*
G01*
X136062500Y-87130000D01*
G75*
G02*
X136210000Y-87277500I0J-147500D01*
G01*
X136210000Y-87622500D01*
G75*
G02*
X136062500Y-87770000I-147500J0D01*
G01*
X135767500Y-87770000D01*
G75*
G02*
X135620000Y-87622500I0J147500D01*
G01*
G37*
G36*
G01*
X136590000Y-87622500D02*
X136590000Y-87277500D01*
G75*
G02*
X136737500Y-87130000I147500J0D01*
G01*
X137032500Y-87130000D01*
G75*
G02*
X137180000Y-87277500I0J-147500D01*
G01*
X137180000Y-87622500D01*
G75*
G02*
X137032500Y-87770000I-147500J0D01*
G01*
X136737500Y-87770000D01*
G75*
G02*
X136590000Y-87622500I0J147500D01*
G01*
G37*
%TD*%
%TO.C,C2*%
G36*
G01*
X142690000Y-87072500D02*
X142690000Y-86727500D01*
G75*
G02*
X142837500Y-86580000I147500J0D01*
G01*
X143132500Y-86580000D01*
G75*
G02*
X143280000Y-86727500I0J-147500D01*
G01*
X143280000Y-87072500D01*
G75*
G02*
X143132500Y-87220000I-147500J0D01*
G01*
X142837500Y-87220000D01*
G75*
G02*
X142690000Y-87072500I0J147500D01*
G01*
G37*
G36*
G01*
X141720000Y-87072500D02*
X141720000Y-86727500D01*
G75*
G02*
X141867500Y-86580000I147500J0D01*
G01*
X142162500Y-86580000D01*
G75*
G02*
X142310000Y-86727500I0J-147500D01*
G01*
X142310000Y-87072500D01*
G75*
G02*
X142162500Y-87220000I-147500J0D01*
G01*
X141867500Y-87220000D01*
G75*
G02*
X141720000Y-87072500I0J147500D01*
G01*
G37*
%TD*%
M02*
