%TF.GenerationSoftware,KiCad,Pcbnew,5.1.8*%
%TF.CreationDate,2020-12-04T00:19:28-05:00*%
%TF.ProjectId,spur,73707572-2e6b-4696-9361-645f70636258,v1.0*%
%TF.SameCoordinates,Original*%
%TF.FileFunction,Soldermask,Bot*%
%TF.FilePolarity,Negative*%
%FSLAX46Y46*%
G04 Gerber Fmt 4.6, Leading zero omitted, Abs format (unit mm)*
G04 Created by KiCad (PCBNEW 5.1.8) date 2020-12-04 00:19:28*
%MOMM*%
%LPD*%
G01*
G04 APERTURE LIST*
%ADD10C,1.000000*%
%ADD11C,1.100000*%
G04 APERTURE END LIST*
%TO.C,U2*%
G36*
G01*
X136100000Y-86150000D02*
X137700000Y-86150000D01*
G75*
G02*
X137750000Y-86200000I0J-50000D01*
G01*
X137750000Y-86600000D01*
G75*
G02*
X137700000Y-86650000I-50000J0D01*
G01*
X136100000Y-86650000D01*
G75*
G02*
X136050000Y-86600000I0J50000D01*
G01*
X136050000Y-86200000D01*
G75*
G02*
X136100000Y-86150000I50000J0D01*
G01*
G37*
G36*
G01*
X136037500Y-87375000D02*
X136262500Y-87375000D01*
G75*
G02*
X136375000Y-87487500I0J-112500D01*
G01*
X136375000Y-87887500D01*
G75*
G02*
X136262500Y-88000000I-112500J0D01*
G01*
X136037500Y-88000000D01*
G75*
G02*
X135925000Y-87887500I0J112500D01*
G01*
X135925000Y-87487500D01*
G75*
G02*
X136037500Y-87375000I112500J0D01*
G01*
G37*
G36*
G01*
X136537500Y-87375000D02*
X136762500Y-87375000D01*
G75*
G02*
X136875000Y-87487500I0J-112500D01*
G01*
X136875000Y-87887500D01*
G75*
G02*
X136762500Y-88000000I-112500J0D01*
G01*
X136537500Y-88000000D01*
G75*
G02*
X136425000Y-87887500I0J112500D01*
G01*
X136425000Y-87487500D01*
G75*
G02*
X136537500Y-87375000I112500J0D01*
G01*
G37*
G36*
G01*
X137037500Y-87375000D02*
X137262500Y-87375000D01*
G75*
G02*
X137375000Y-87487500I0J-112500D01*
G01*
X137375000Y-87887500D01*
G75*
G02*
X137262500Y-88000000I-112500J0D01*
G01*
X137037500Y-88000000D01*
G75*
G02*
X136925000Y-87887500I0J112500D01*
G01*
X136925000Y-87487500D01*
G75*
G02*
X137037500Y-87375000I112500J0D01*
G01*
G37*
G36*
G01*
X137537500Y-87375000D02*
X137762500Y-87375000D01*
G75*
G02*
X137875000Y-87487500I0J-112500D01*
G01*
X137875000Y-87887500D01*
G75*
G02*
X137762500Y-88000000I-112500J0D01*
G01*
X137537500Y-88000000D01*
G75*
G02*
X137425000Y-87887500I0J112500D01*
G01*
X137425000Y-87487500D01*
G75*
G02*
X137537500Y-87375000I112500J0D01*
G01*
G37*
G36*
G01*
X137537500Y-84800000D02*
X137762500Y-84800000D01*
G75*
G02*
X137875000Y-84912500I0J-112500D01*
G01*
X137875000Y-85312500D01*
G75*
G02*
X137762500Y-85425000I-112500J0D01*
G01*
X137537500Y-85425000D01*
G75*
G02*
X137425000Y-85312500I0J112500D01*
G01*
X137425000Y-84912500D01*
G75*
G02*
X137537500Y-84800000I112500J0D01*
G01*
G37*
G36*
G01*
X137037500Y-84800000D02*
X137262500Y-84800000D01*
G75*
G02*
X137375000Y-84912500I0J-112500D01*
G01*
X137375000Y-85312500D01*
G75*
G02*
X137262500Y-85425000I-112500J0D01*
G01*
X137037500Y-85425000D01*
G75*
G02*
X136925000Y-85312500I0J112500D01*
G01*
X136925000Y-84912500D01*
G75*
G02*
X137037500Y-84800000I112500J0D01*
G01*
G37*
G36*
G01*
X136537500Y-84800000D02*
X136762500Y-84800000D01*
G75*
G02*
X136875000Y-84912500I0J-112500D01*
G01*
X136875000Y-85312500D01*
G75*
G02*
X136762500Y-85425000I-112500J0D01*
G01*
X136537500Y-85425000D01*
G75*
G02*
X136425000Y-85312500I0J112500D01*
G01*
X136425000Y-84912500D01*
G75*
G02*
X136537500Y-84800000I112500J0D01*
G01*
G37*
G36*
G01*
X136037500Y-84800000D02*
X136262500Y-84800000D01*
G75*
G02*
X136375000Y-84912500I0J-112500D01*
G01*
X136375000Y-85312500D01*
G75*
G02*
X136262500Y-85425000I-112500J0D01*
G01*
X136037500Y-85425000D01*
G75*
G02*
X135925000Y-85312500I0J112500D01*
G01*
X135925000Y-84912500D01*
G75*
G02*
X136037500Y-84800000I112500J0D01*
G01*
G37*
%TD*%
D10*
%TO.C,SW1*%
X142000000Y-92580000D03*
X138000000Y-92580000D03*
%TD*%
D11*
%TO.C,TP3*%
X144000000Y-91200000D03*
%TD*%
%TO.C,TP2*%
X142400000Y-91200000D03*
%TD*%
%TO.C,TP4*%
X140800000Y-91200000D03*
%TD*%
%TO.C,TP6*%
X139200000Y-91200000D03*
%TD*%
%TO.C,TP5*%
X137600000Y-91200000D03*
%TD*%
%TO.C,TP1*%
X136000000Y-91200000D03*
%TD*%
%TO.C,C10*%
G36*
G01*
X143902500Y-84340000D02*
X144297500Y-84340000D01*
G75*
G02*
X144470000Y-84512500I0J-172500D01*
G01*
X144470000Y-84857500D01*
G75*
G02*
X144297500Y-85030000I-172500J0D01*
G01*
X143902500Y-85030000D01*
G75*
G02*
X143730000Y-84857500I0J172500D01*
G01*
X143730000Y-84512500D01*
G75*
G02*
X143902500Y-84340000I172500J0D01*
G01*
G37*
G36*
G01*
X143902500Y-83370000D02*
X144297500Y-83370000D01*
G75*
G02*
X144470000Y-83542500I0J-172500D01*
G01*
X144470000Y-83887500D01*
G75*
G02*
X144297500Y-84060000I-172500J0D01*
G01*
X143902500Y-84060000D01*
G75*
G02*
X143730000Y-83887500I0J172500D01*
G01*
X143730000Y-83542500D01*
G75*
G02*
X143902500Y-83370000I172500J0D01*
G01*
G37*
%TD*%
%TO.C,C9*%
G36*
G01*
X145145000Y-75102500D02*
X145145000Y-75497500D01*
G75*
G02*
X144972500Y-75670000I-172500J0D01*
G01*
X144627500Y-75670000D01*
G75*
G02*
X144455000Y-75497500I0J172500D01*
G01*
X144455000Y-75102500D01*
G75*
G02*
X144627500Y-74930000I172500J0D01*
G01*
X144972500Y-74930000D01*
G75*
G02*
X145145000Y-75102500I0J-172500D01*
G01*
G37*
G36*
G01*
X144175000Y-75102500D02*
X144175000Y-75497500D01*
G75*
G02*
X144002500Y-75670000I-172500J0D01*
G01*
X143657500Y-75670000D01*
G75*
G02*
X143485000Y-75497500I0J172500D01*
G01*
X143485000Y-75102500D01*
G75*
G02*
X143657500Y-74930000I172500J0D01*
G01*
X144002500Y-74930000D01*
G75*
G02*
X144175000Y-75102500I0J-172500D01*
G01*
G37*
%TD*%
%TO.C,C7*%
G36*
G01*
X144297500Y-87030000D02*
X143902500Y-87030000D01*
G75*
G02*
X143730000Y-86857500I0J172500D01*
G01*
X143730000Y-86512500D01*
G75*
G02*
X143902500Y-86340000I172500J0D01*
G01*
X144297500Y-86340000D01*
G75*
G02*
X144470000Y-86512500I0J-172500D01*
G01*
X144470000Y-86857500D01*
G75*
G02*
X144297500Y-87030000I-172500J0D01*
G01*
G37*
G36*
G01*
X144297500Y-86060000D02*
X143902500Y-86060000D01*
G75*
G02*
X143730000Y-85887500I0J172500D01*
G01*
X143730000Y-85542500D01*
G75*
G02*
X143902500Y-85370000I172500J0D01*
G01*
X144297500Y-85370000D01*
G75*
G02*
X144470000Y-85542500I0J-172500D01*
G01*
X144470000Y-85887500D01*
G75*
G02*
X144297500Y-86060000I-172500J0D01*
G01*
G37*
%TD*%
%TO.C,C6*%
G36*
G01*
X135497500Y-77475000D02*
X135102500Y-77475000D01*
G75*
G02*
X134930000Y-77302500I0J172500D01*
G01*
X134930000Y-76957500D01*
G75*
G02*
X135102500Y-76785000I172500J0D01*
G01*
X135497500Y-76785000D01*
G75*
G02*
X135670000Y-76957500I0J-172500D01*
G01*
X135670000Y-77302500D01*
G75*
G02*
X135497500Y-77475000I-172500J0D01*
G01*
G37*
G36*
G01*
X135497500Y-78445000D02*
X135102500Y-78445000D01*
G75*
G02*
X134930000Y-78272500I0J172500D01*
G01*
X134930000Y-77927500D01*
G75*
G02*
X135102500Y-77755000I172500J0D01*
G01*
X135497500Y-77755000D01*
G75*
G02*
X135670000Y-77927500I0J-172500D01*
G01*
X135670000Y-78272500D01*
G75*
G02*
X135497500Y-78445000I-172500J0D01*
G01*
G37*
%TD*%
%TO.C,C8*%
G36*
G01*
X135875000Y-75102500D02*
X135875000Y-75497500D01*
G75*
G02*
X135702500Y-75670000I-172500J0D01*
G01*
X135357500Y-75670000D01*
G75*
G02*
X135185000Y-75497500I0J172500D01*
G01*
X135185000Y-75102500D01*
G75*
G02*
X135357500Y-74930000I172500J0D01*
G01*
X135702500Y-74930000D01*
G75*
G02*
X135875000Y-75102500I0J-172500D01*
G01*
G37*
G36*
G01*
X136845000Y-75102500D02*
X136845000Y-75497500D01*
G75*
G02*
X136672500Y-75670000I-172500J0D01*
G01*
X136327500Y-75670000D01*
G75*
G02*
X136155000Y-75497500I0J172500D01*
G01*
X136155000Y-75102500D01*
G75*
G02*
X136327500Y-74930000I172500J0D01*
G01*
X136672500Y-74930000D01*
G75*
G02*
X136845000Y-75102500I0J-172500D01*
G01*
G37*
%TD*%
%TO.C,C4*%
G36*
G01*
X143030000Y-84602500D02*
X143030000Y-84997500D01*
G75*
G02*
X142857500Y-85170000I-172500J0D01*
G01*
X142512500Y-85170000D01*
G75*
G02*
X142340000Y-84997500I0J172500D01*
G01*
X142340000Y-84602500D01*
G75*
G02*
X142512500Y-84430000I172500J0D01*
G01*
X142857500Y-84430000D01*
G75*
G02*
X143030000Y-84602500I0J-172500D01*
G01*
G37*
G36*
G01*
X142060000Y-84602500D02*
X142060000Y-84997500D01*
G75*
G02*
X141887500Y-85170000I-172500J0D01*
G01*
X141542500Y-85170000D01*
G75*
G02*
X141370000Y-84997500I0J172500D01*
G01*
X141370000Y-84602500D01*
G75*
G02*
X141542500Y-84430000I172500J0D01*
G01*
X141887500Y-84430000D01*
G75*
G02*
X142060000Y-84602500I0J-172500D01*
G01*
G37*
%TD*%
%TO.C,C5*%
G36*
G01*
X142340000Y-88597500D02*
X142340000Y-88202500D01*
G75*
G02*
X142512500Y-88030000I172500J0D01*
G01*
X142857500Y-88030000D01*
G75*
G02*
X143030000Y-88202500I0J-172500D01*
G01*
X143030000Y-88597500D01*
G75*
G02*
X142857500Y-88770000I-172500J0D01*
G01*
X142512500Y-88770000D01*
G75*
G02*
X142340000Y-88597500I0J172500D01*
G01*
G37*
G36*
G01*
X141370000Y-88597500D02*
X141370000Y-88202500D01*
G75*
G02*
X141542500Y-88030000I172500J0D01*
G01*
X141887500Y-88030000D01*
G75*
G02*
X142060000Y-88202500I0J-172500D01*
G01*
X142060000Y-88597500D01*
G75*
G02*
X141887500Y-88770000I-172500J0D01*
G01*
X141542500Y-88770000D01*
G75*
G02*
X141370000Y-88597500I0J172500D01*
G01*
G37*
%TD*%
%TO.C,U3*%
G36*
G01*
X142837500Y-83775000D02*
X142662500Y-83775000D01*
G75*
G02*
X142575000Y-83687500I0J87500D01*
G01*
X142575000Y-82887500D01*
G75*
G02*
X142662500Y-82800000I87500J0D01*
G01*
X142837500Y-82800000D01*
G75*
G02*
X142925000Y-82887500I0J-87500D01*
G01*
X142925000Y-83687500D01*
G75*
G02*
X142837500Y-83775000I-87500J0D01*
G01*
G37*
G36*
G01*
X142337500Y-83775000D02*
X142162500Y-83775000D01*
G75*
G02*
X142075000Y-83687500I0J87500D01*
G01*
X142075000Y-82887500D01*
G75*
G02*
X142162500Y-82800000I87500J0D01*
G01*
X142337500Y-82800000D01*
G75*
G02*
X142425000Y-82887500I0J-87500D01*
G01*
X142425000Y-83687500D01*
G75*
G02*
X142337500Y-83775000I-87500J0D01*
G01*
G37*
G36*
G01*
X141837500Y-83775000D02*
X141662500Y-83775000D01*
G75*
G02*
X141575000Y-83687500I0J87500D01*
G01*
X141575000Y-82887500D01*
G75*
G02*
X141662500Y-82800000I87500J0D01*
G01*
X141837500Y-82800000D01*
G75*
G02*
X141925000Y-82887500I0J-87500D01*
G01*
X141925000Y-83687500D01*
G75*
G02*
X141837500Y-83775000I-87500J0D01*
G01*
G37*
G36*
G01*
X141337500Y-83775000D02*
X141162500Y-83775000D01*
G75*
G02*
X141075000Y-83687500I0J87500D01*
G01*
X141075000Y-82887500D01*
G75*
G02*
X141162500Y-82800000I87500J0D01*
G01*
X141337500Y-82800000D01*
G75*
G02*
X141425000Y-82887500I0J-87500D01*
G01*
X141425000Y-83687500D01*
G75*
G02*
X141337500Y-83775000I-87500J0D01*
G01*
G37*
G36*
G01*
X140837500Y-83775000D02*
X140662500Y-83775000D01*
G75*
G02*
X140575000Y-83687500I0J87500D01*
G01*
X140575000Y-82887500D01*
G75*
G02*
X140662500Y-82800000I87500J0D01*
G01*
X140837500Y-82800000D01*
G75*
G02*
X140925000Y-82887500I0J-87500D01*
G01*
X140925000Y-83687500D01*
G75*
G02*
X140837500Y-83775000I-87500J0D01*
G01*
G37*
G36*
G01*
X140337500Y-83775000D02*
X140162500Y-83775000D01*
G75*
G02*
X140075000Y-83687500I0J87500D01*
G01*
X140075000Y-82887500D01*
G75*
G02*
X140162500Y-82800000I87500J0D01*
G01*
X140337500Y-82800000D01*
G75*
G02*
X140425000Y-82887500I0J-87500D01*
G01*
X140425000Y-83687500D01*
G75*
G02*
X140337500Y-83775000I-87500J0D01*
G01*
G37*
G36*
G01*
X139837500Y-83775000D02*
X139662500Y-83775000D01*
G75*
G02*
X139575000Y-83687500I0J87500D01*
G01*
X139575000Y-82887500D01*
G75*
G02*
X139662500Y-82800000I87500J0D01*
G01*
X139837500Y-82800000D01*
G75*
G02*
X139925000Y-82887500I0J-87500D01*
G01*
X139925000Y-83687500D01*
G75*
G02*
X139837500Y-83775000I-87500J0D01*
G01*
G37*
G36*
G01*
X139337500Y-83775000D02*
X139162500Y-83775000D01*
G75*
G02*
X139075000Y-83687500I0J87500D01*
G01*
X139075000Y-82887500D01*
G75*
G02*
X139162500Y-82800000I87500J0D01*
G01*
X139337500Y-82800000D01*
G75*
G02*
X139425000Y-82887500I0J-87500D01*
G01*
X139425000Y-83687500D01*
G75*
G02*
X139337500Y-83775000I-87500J0D01*
G01*
G37*
G36*
G01*
X138837500Y-83775000D02*
X138662500Y-83775000D01*
G75*
G02*
X138575000Y-83687500I0J87500D01*
G01*
X138575000Y-82887500D01*
G75*
G02*
X138662500Y-82800000I87500J0D01*
G01*
X138837500Y-82800000D01*
G75*
G02*
X138925000Y-82887500I0J-87500D01*
G01*
X138925000Y-83687500D01*
G75*
G02*
X138837500Y-83775000I-87500J0D01*
G01*
G37*
G36*
G01*
X138337500Y-83775000D02*
X138162500Y-83775000D01*
G75*
G02*
X138075000Y-83687500I0J87500D01*
G01*
X138075000Y-82887500D01*
G75*
G02*
X138162500Y-82800000I87500J0D01*
G01*
X138337500Y-82800000D01*
G75*
G02*
X138425000Y-82887500I0J-87500D01*
G01*
X138425000Y-83687500D01*
G75*
G02*
X138337500Y-83775000I-87500J0D01*
G01*
G37*
G36*
G01*
X137837500Y-83775000D02*
X137662500Y-83775000D01*
G75*
G02*
X137575000Y-83687500I0J87500D01*
G01*
X137575000Y-82887500D01*
G75*
G02*
X137662500Y-82800000I87500J0D01*
G01*
X137837500Y-82800000D01*
G75*
G02*
X137925000Y-82887500I0J-87500D01*
G01*
X137925000Y-83687500D01*
G75*
G02*
X137837500Y-83775000I-87500J0D01*
G01*
G37*
G36*
G01*
X137337500Y-83775000D02*
X137162500Y-83775000D01*
G75*
G02*
X137075000Y-83687500I0J87500D01*
G01*
X137075000Y-82887500D01*
G75*
G02*
X137162500Y-82800000I87500J0D01*
G01*
X137337500Y-82800000D01*
G75*
G02*
X137425000Y-82887500I0J-87500D01*
G01*
X137425000Y-83687500D01*
G75*
G02*
X137337500Y-83775000I-87500J0D01*
G01*
G37*
G36*
G01*
X136962500Y-82775000D02*
X136162500Y-82775000D01*
G75*
G02*
X136075000Y-82687500I0J87500D01*
G01*
X136075000Y-82512500D01*
G75*
G02*
X136162500Y-82425000I87500J0D01*
G01*
X136962500Y-82425000D01*
G75*
G02*
X137050000Y-82512500I0J-87500D01*
G01*
X137050000Y-82687500D01*
G75*
G02*
X136962500Y-82775000I-87500J0D01*
G01*
G37*
G36*
G01*
X136962500Y-82275000D02*
X136162500Y-82275000D01*
G75*
G02*
X136075000Y-82187500I0J87500D01*
G01*
X136075000Y-82012500D01*
G75*
G02*
X136162500Y-81925000I87500J0D01*
G01*
X136962500Y-81925000D01*
G75*
G02*
X137050000Y-82012500I0J-87500D01*
G01*
X137050000Y-82187500D01*
G75*
G02*
X136962500Y-82275000I-87500J0D01*
G01*
G37*
G36*
G01*
X136962500Y-81775000D02*
X136162500Y-81775000D01*
G75*
G02*
X136075000Y-81687500I0J87500D01*
G01*
X136075000Y-81512500D01*
G75*
G02*
X136162500Y-81425000I87500J0D01*
G01*
X136962500Y-81425000D01*
G75*
G02*
X137050000Y-81512500I0J-87500D01*
G01*
X137050000Y-81687500D01*
G75*
G02*
X136962500Y-81775000I-87500J0D01*
G01*
G37*
G36*
G01*
X136962500Y-81275000D02*
X136162500Y-81275000D01*
G75*
G02*
X136075000Y-81187500I0J87500D01*
G01*
X136075000Y-81012500D01*
G75*
G02*
X136162500Y-80925000I87500J0D01*
G01*
X136962500Y-80925000D01*
G75*
G02*
X137050000Y-81012500I0J-87500D01*
G01*
X137050000Y-81187500D01*
G75*
G02*
X136962500Y-81275000I-87500J0D01*
G01*
G37*
G36*
G01*
X136962500Y-80775000D02*
X136162500Y-80775000D01*
G75*
G02*
X136075000Y-80687500I0J87500D01*
G01*
X136075000Y-80512500D01*
G75*
G02*
X136162500Y-80425000I87500J0D01*
G01*
X136962500Y-80425000D01*
G75*
G02*
X137050000Y-80512500I0J-87500D01*
G01*
X137050000Y-80687500D01*
G75*
G02*
X136962500Y-80775000I-87500J0D01*
G01*
G37*
G36*
G01*
X136962500Y-80275000D02*
X136162500Y-80275000D01*
G75*
G02*
X136075000Y-80187500I0J87500D01*
G01*
X136075000Y-80012500D01*
G75*
G02*
X136162500Y-79925000I87500J0D01*
G01*
X136962500Y-79925000D01*
G75*
G02*
X137050000Y-80012500I0J-87500D01*
G01*
X137050000Y-80187500D01*
G75*
G02*
X136962500Y-80275000I-87500J0D01*
G01*
G37*
G36*
G01*
X136962500Y-79775000D02*
X136162500Y-79775000D01*
G75*
G02*
X136075000Y-79687500I0J87500D01*
G01*
X136075000Y-79512500D01*
G75*
G02*
X136162500Y-79425000I87500J0D01*
G01*
X136962500Y-79425000D01*
G75*
G02*
X137050000Y-79512500I0J-87500D01*
G01*
X137050000Y-79687500D01*
G75*
G02*
X136962500Y-79775000I-87500J0D01*
G01*
G37*
G36*
G01*
X136962500Y-79275000D02*
X136162500Y-79275000D01*
G75*
G02*
X136075000Y-79187500I0J87500D01*
G01*
X136075000Y-79012500D01*
G75*
G02*
X136162500Y-78925000I87500J0D01*
G01*
X136962500Y-78925000D01*
G75*
G02*
X137050000Y-79012500I0J-87500D01*
G01*
X137050000Y-79187500D01*
G75*
G02*
X136962500Y-79275000I-87500J0D01*
G01*
G37*
G36*
G01*
X136962500Y-78775000D02*
X136162500Y-78775000D01*
G75*
G02*
X136075000Y-78687500I0J87500D01*
G01*
X136075000Y-78512500D01*
G75*
G02*
X136162500Y-78425000I87500J0D01*
G01*
X136962500Y-78425000D01*
G75*
G02*
X137050000Y-78512500I0J-87500D01*
G01*
X137050000Y-78687500D01*
G75*
G02*
X136962500Y-78775000I-87500J0D01*
G01*
G37*
G36*
G01*
X136962500Y-78275000D02*
X136162500Y-78275000D01*
G75*
G02*
X136075000Y-78187500I0J87500D01*
G01*
X136075000Y-78012500D01*
G75*
G02*
X136162500Y-77925000I87500J0D01*
G01*
X136962500Y-77925000D01*
G75*
G02*
X137050000Y-78012500I0J-87500D01*
G01*
X137050000Y-78187500D01*
G75*
G02*
X136962500Y-78275000I-87500J0D01*
G01*
G37*
G36*
G01*
X136962500Y-77775000D02*
X136162500Y-77775000D01*
G75*
G02*
X136075000Y-77687500I0J87500D01*
G01*
X136075000Y-77512500D01*
G75*
G02*
X136162500Y-77425000I87500J0D01*
G01*
X136962500Y-77425000D01*
G75*
G02*
X137050000Y-77512500I0J-87500D01*
G01*
X137050000Y-77687500D01*
G75*
G02*
X136962500Y-77775000I-87500J0D01*
G01*
G37*
G36*
G01*
X136962500Y-77275000D02*
X136162500Y-77275000D01*
G75*
G02*
X136075000Y-77187500I0J87500D01*
G01*
X136075000Y-77012500D01*
G75*
G02*
X136162500Y-76925000I87500J0D01*
G01*
X136962500Y-76925000D01*
G75*
G02*
X137050000Y-77012500I0J-87500D01*
G01*
X137050000Y-77187500D01*
G75*
G02*
X136962500Y-77275000I-87500J0D01*
G01*
G37*
G36*
G01*
X137337500Y-76900000D02*
X137162500Y-76900000D01*
G75*
G02*
X137075000Y-76812500I0J87500D01*
G01*
X137075000Y-76012500D01*
G75*
G02*
X137162500Y-75925000I87500J0D01*
G01*
X137337500Y-75925000D01*
G75*
G02*
X137425000Y-76012500I0J-87500D01*
G01*
X137425000Y-76812500D01*
G75*
G02*
X137337500Y-76900000I-87500J0D01*
G01*
G37*
G36*
G01*
X137837500Y-76900000D02*
X137662500Y-76900000D01*
G75*
G02*
X137575000Y-76812500I0J87500D01*
G01*
X137575000Y-76012500D01*
G75*
G02*
X137662500Y-75925000I87500J0D01*
G01*
X137837500Y-75925000D01*
G75*
G02*
X137925000Y-76012500I0J-87500D01*
G01*
X137925000Y-76812500D01*
G75*
G02*
X137837500Y-76900000I-87500J0D01*
G01*
G37*
G36*
G01*
X138337500Y-76900000D02*
X138162500Y-76900000D01*
G75*
G02*
X138075000Y-76812500I0J87500D01*
G01*
X138075000Y-76012500D01*
G75*
G02*
X138162500Y-75925000I87500J0D01*
G01*
X138337500Y-75925000D01*
G75*
G02*
X138425000Y-76012500I0J-87500D01*
G01*
X138425000Y-76812500D01*
G75*
G02*
X138337500Y-76900000I-87500J0D01*
G01*
G37*
G36*
G01*
X138837500Y-76900000D02*
X138662500Y-76900000D01*
G75*
G02*
X138575000Y-76812500I0J87500D01*
G01*
X138575000Y-76012500D01*
G75*
G02*
X138662500Y-75925000I87500J0D01*
G01*
X138837500Y-75925000D01*
G75*
G02*
X138925000Y-76012500I0J-87500D01*
G01*
X138925000Y-76812500D01*
G75*
G02*
X138837500Y-76900000I-87500J0D01*
G01*
G37*
G36*
G01*
X139337500Y-76900000D02*
X139162500Y-76900000D01*
G75*
G02*
X139075000Y-76812500I0J87500D01*
G01*
X139075000Y-76012500D01*
G75*
G02*
X139162500Y-75925000I87500J0D01*
G01*
X139337500Y-75925000D01*
G75*
G02*
X139425000Y-76012500I0J-87500D01*
G01*
X139425000Y-76812500D01*
G75*
G02*
X139337500Y-76900000I-87500J0D01*
G01*
G37*
G36*
G01*
X139837500Y-76900000D02*
X139662500Y-76900000D01*
G75*
G02*
X139575000Y-76812500I0J87500D01*
G01*
X139575000Y-76012500D01*
G75*
G02*
X139662500Y-75925000I87500J0D01*
G01*
X139837500Y-75925000D01*
G75*
G02*
X139925000Y-76012500I0J-87500D01*
G01*
X139925000Y-76812500D01*
G75*
G02*
X139837500Y-76900000I-87500J0D01*
G01*
G37*
G36*
G01*
X140337500Y-76900000D02*
X140162500Y-76900000D01*
G75*
G02*
X140075000Y-76812500I0J87500D01*
G01*
X140075000Y-76012500D01*
G75*
G02*
X140162500Y-75925000I87500J0D01*
G01*
X140337500Y-75925000D01*
G75*
G02*
X140425000Y-76012500I0J-87500D01*
G01*
X140425000Y-76812500D01*
G75*
G02*
X140337500Y-76900000I-87500J0D01*
G01*
G37*
G36*
G01*
X140837500Y-76900000D02*
X140662500Y-76900000D01*
G75*
G02*
X140575000Y-76812500I0J87500D01*
G01*
X140575000Y-76012500D01*
G75*
G02*
X140662500Y-75925000I87500J0D01*
G01*
X140837500Y-75925000D01*
G75*
G02*
X140925000Y-76012500I0J-87500D01*
G01*
X140925000Y-76812500D01*
G75*
G02*
X140837500Y-76900000I-87500J0D01*
G01*
G37*
G36*
G01*
X141337500Y-76900000D02*
X141162500Y-76900000D01*
G75*
G02*
X141075000Y-76812500I0J87500D01*
G01*
X141075000Y-76012500D01*
G75*
G02*
X141162500Y-75925000I87500J0D01*
G01*
X141337500Y-75925000D01*
G75*
G02*
X141425000Y-76012500I0J-87500D01*
G01*
X141425000Y-76812500D01*
G75*
G02*
X141337500Y-76900000I-87500J0D01*
G01*
G37*
G36*
G01*
X141837500Y-76900000D02*
X141662500Y-76900000D01*
G75*
G02*
X141575000Y-76812500I0J87500D01*
G01*
X141575000Y-76012500D01*
G75*
G02*
X141662500Y-75925000I87500J0D01*
G01*
X141837500Y-75925000D01*
G75*
G02*
X141925000Y-76012500I0J-87500D01*
G01*
X141925000Y-76812500D01*
G75*
G02*
X141837500Y-76900000I-87500J0D01*
G01*
G37*
G36*
G01*
X142337500Y-76900000D02*
X142162500Y-76900000D01*
G75*
G02*
X142075000Y-76812500I0J87500D01*
G01*
X142075000Y-76012500D01*
G75*
G02*
X142162500Y-75925000I87500J0D01*
G01*
X142337500Y-75925000D01*
G75*
G02*
X142425000Y-76012500I0J-87500D01*
G01*
X142425000Y-76812500D01*
G75*
G02*
X142337500Y-76900000I-87500J0D01*
G01*
G37*
G36*
G01*
X142837500Y-76900000D02*
X142662500Y-76900000D01*
G75*
G02*
X142575000Y-76812500I0J87500D01*
G01*
X142575000Y-76012500D01*
G75*
G02*
X142662500Y-75925000I87500J0D01*
G01*
X142837500Y-75925000D01*
G75*
G02*
X142925000Y-76012500I0J-87500D01*
G01*
X142925000Y-76812500D01*
G75*
G02*
X142837500Y-76900000I-87500J0D01*
G01*
G37*
G36*
G01*
X143837500Y-77275000D02*
X143037500Y-77275000D01*
G75*
G02*
X142950000Y-77187500I0J87500D01*
G01*
X142950000Y-77012500D01*
G75*
G02*
X143037500Y-76925000I87500J0D01*
G01*
X143837500Y-76925000D01*
G75*
G02*
X143925000Y-77012500I0J-87500D01*
G01*
X143925000Y-77187500D01*
G75*
G02*
X143837500Y-77275000I-87500J0D01*
G01*
G37*
G36*
G01*
X143837500Y-77775000D02*
X143037500Y-77775000D01*
G75*
G02*
X142950000Y-77687500I0J87500D01*
G01*
X142950000Y-77512500D01*
G75*
G02*
X143037500Y-77425000I87500J0D01*
G01*
X143837500Y-77425000D01*
G75*
G02*
X143925000Y-77512500I0J-87500D01*
G01*
X143925000Y-77687500D01*
G75*
G02*
X143837500Y-77775000I-87500J0D01*
G01*
G37*
G36*
G01*
X143837500Y-78275000D02*
X143037500Y-78275000D01*
G75*
G02*
X142950000Y-78187500I0J87500D01*
G01*
X142950000Y-78012500D01*
G75*
G02*
X143037500Y-77925000I87500J0D01*
G01*
X143837500Y-77925000D01*
G75*
G02*
X143925000Y-78012500I0J-87500D01*
G01*
X143925000Y-78187500D01*
G75*
G02*
X143837500Y-78275000I-87500J0D01*
G01*
G37*
G36*
G01*
X143837500Y-78775000D02*
X143037500Y-78775000D01*
G75*
G02*
X142950000Y-78687500I0J87500D01*
G01*
X142950000Y-78512500D01*
G75*
G02*
X143037500Y-78425000I87500J0D01*
G01*
X143837500Y-78425000D01*
G75*
G02*
X143925000Y-78512500I0J-87500D01*
G01*
X143925000Y-78687500D01*
G75*
G02*
X143837500Y-78775000I-87500J0D01*
G01*
G37*
G36*
G01*
X143837500Y-79275000D02*
X143037500Y-79275000D01*
G75*
G02*
X142950000Y-79187500I0J87500D01*
G01*
X142950000Y-79012500D01*
G75*
G02*
X143037500Y-78925000I87500J0D01*
G01*
X143837500Y-78925000D01*
G75*
G02*
X143925000Y-79012500I0J-87500D01*
G01*
X143925000Y-79187500D01*
G75*
G02*
X143837500Y-79275000I-87500J0D01*
G01*
G37*
G36*
G01*
X143837500Y-79775000D02*
X143037500Y-79775000D01*
G75*
G02*
X142950000Y-79687500I0J87500D01*
G01*
X142950000Y-79512500D01*
G75*
G02*
X143037500Y-79425000I87500J0D01*
G01*
X143837500Y-79425000D01*
G75*
G02*
X143925000Y-79512500I0J-87500D01*
G01*
X143925000Y-79687500D01*
G75*
G02*
X143837500Y-79775000I-87500J0D01*
G01*
G37*
G36*
G01*
X143837500Y-80275000D02*
X143037500Y-80275000D01*
G75*
G02*
X142950000Y-80187500I0J87500D01*
G01*
X142950000Y-80012500D01*
G75*
G02*
X143037500Y-79925000I87500J0D01*
G01*
X143837500Y-79925000D01*
G75*
G02*
X143925000Y-80012500I0J-87500D01*
G01*
X143925000Y-80187500D01*
G75*
G02*
X143837500Y-80275000I-87500J0D01*
G01*
G37*
G36*
G01*
X143837500Y-80775000D02*
X143037500Y-80775000D01*
G75*
G02*
X142950000Y-80687500I0J87500D01*
G01*
X142950000Y-80512500D01*
G75*
G02*
X143037500Y-80425000I87500J0D01*
G01*
X143837500Y-80425000D01*
G75*
G02*
X143925000Y-80512500I0J-87500D01*
G01*
X143925000Y-80687500D01*
G75*
G02*
X143837500Y-80775000I-87500J0D01*
G01*
G37*
G36*
G01*
X143837500Y-81275000D02*
X143037500Y-81275000D01*
G75*
G02*
X142950000Y-81187500I0J87500D01*
G01*
X142950000Y-81012500D01*
G75*
G02*
X143037500Y-80925000I87500J0D01*
G01*
X143837500Y-80925000D01*
G75*
G02*
X143925000Y-81012500I0J-87500D01*
G01*
X143925000Y-81187500D01*
G75*
G02*
X143837500Y-81275000I-87500J0D01*
G01*
G37*
G36*
G01*
X143837500Y-81775000D02*
X143037500Y-81775000D01*
G75*
G02*
X142950000Y-81687500I0J87500D01*
G01*
X142950000Y-81512500D01*
G75*
G02*
X143037500Y-81425000I87500J0D01*
G01*
X143837500Y-81425000D01*
G75*
G02*
X143925000Y-81512500I0J-87500D01*
G01*
X143925000Y-81687500D01*
G75*
G02*
X143837500Y-81775000I-87500J0D01*
G01*
G37*
G36*
G01*
X143837500Y-82275000D02*
X143037500Y-82275000D01*
G75*
G02*
X142950000Y-82187500I0J87500D01*
G01*
X142950000Y-82012500D01*
G75*
G02*
X143037500Y-81925000I87500J0D01*
G01*
X143837500Y-81925000D01*
G75*
G02*
X143925000Y-82012500I0J-87500D01*
G01*
X143925000Y-82187500D01*
G75*
G02*
X143837500Y-82275000I-87500J0D01*
G01*
G37*
G36*
G01*
X143837500Y-82775000D02*
X143037500Y-82775000D01*
G75*
G02*
X142950000Y-82687500I0J87500D01*
G01*
X142950000Y-82512500D01*
G75*
G02*
X143037500Y-82425000I87500J0D01*
G01*
X143837500Y-82425000D01*
G75*
G02*
X143925000Y-82512500I0J-87500D01*
G01*
X143925000Y-82687500D01*
G75*
G02*
X143837500Y-82775000I-87500J0D01*
G01*
G37*
G36*
G01*
X142800000Y-82700000D02*
X137200000Y-82700000D01*
G75*
G02*
X137150000Y-82650000I0J50000D01*
G01*
X137150000Y-77050000D01*
G75*
G02*
X137200000Y-77000000I50000J0D01*
G01*
X142800000Y-77000000D01*
G75*
G02*
X142850000Y-77050000I0J-50000D01*
G01*
X142850000Y-82650000D01*
G75*
G02*
X142800000Y-82700000I-50000J0D01*
G01*
G37*
%TD*%
%TO.C,Y1*%
G36*
G01*
X142350000Y-85400000D02*
X143150000Y-85400000D01*
G75*
G02*
X143200000Y-85450000I0J-50000D01*
G01*
X143200000Y-86350000D01*
G75*
G02*
X143150000Y-86400000I-50000J0D01*
G01*
X142350000Y-86400000D01*
G75*
G02*
X142300000Y-86350000I0J50000D01*
G01*
X142300000Y-85450000D01*
G75*
G02*
X142350000Y-85400000I50000J0D01*
G01*
G37*
G36*
G01*
X142350000Y-86800000D02*
X143150000Y-86800000D01*
G75*
G02*
X143200000Y-86850000I0J-50000D01*
G01*
X143200000Y-87750000D01*
G75*
G02*
X143150000Y-87800000I-50000J0D01*
G01*
X142350000Y-87800000D01*
G75*
G02*
X142300000Y-87750000I0J50000D01*
G01*
X142300000Y-86850000D01*
G75*
G02*
X142350000Y-86800000I50000J0D01*
G01*
G37*
G36*
G01*
X141250000Y-86800000D02*
X142050000Y-86800000D01*
G75*
G02*
X142100000Y-86850000I0J-50000D01*
G01*
X142100000Y-87750000D01*
G75*
G02*
X142050000Y-87800000I-50000J0D01*
G01*
X141250000Y-87800000D01*
G75*
G02*
X141200000Y-87750000I0J50000D01*
G01*
X141200000Y-86850000D01*
G75*
G02*
X141250000Y-86800000I50000J0D01*
G01*
G37*
G36*
G01*
X141250000Y-85400000D02*
X142050000Y-85400000D01*
G75*
G02*
X142100000Y-85450000I0J-50000D01*
G01*
X142100000Y-86350000D01*
G75*
G02*
X142050000Y-86400000I-50000J0D01*
G01*
X141250000Y-86400000D01*
G75*
G02*
X141200000Y-86350000I0J50000D01*
G01*
X141200000Y-85450000D01*
G75*
G02*
X141250000Y-85400000I50000J0D01*
G01*
G37*
%TD*%
M02*
